<?xml version="1.0" standalone="no"?>
<!DOCTYPE svg PUBLIC "-//W3C//DTD SVG 20010904//EN"
 "http://www.w3.org/TR/2001/REC-SVG-20010904/DTD/svg10.dtd">
<svg version="1.0" xmlns="http://www.w3.org/2000/svg"
 width="400.000000pt" height="400.000000pt" viewBox="0 0 400.000000 400.000000"
 preserveAspectRatio="xMidYMid meet">
<metadata>
Created by potrace 1.15, written by Peter Selinger 2001-2017
</metadata>
<g transform="translate(0.000000,400.000000) scale(0.100000,-0.100000)"
fill="#e41111" stroke="none">
<path d="M1555 3990 c-227 -30 -435 -123 -606 -273 -106 -93 -170 -189 -225
-340 l-13 -38 44 32 c25 18 48 30 51 26 10 -10 -47 -99 -118 -184 -38 -46 -66
-83 -63 -83 3 0 24 9 47 21 l41 21 -7 -24 c-4 -12 -11 -111 -16 -218 -15 -296
16 -557 91 -765 32 -88 220 -470 241 -490 6 -5 -19 46 -55 115 -74 141 -86
200 -72 347 l8 78 16 -70 c24 -98 63 -165 154 -261 65 -69 84 -98 116 -172 57
-132 117 -212 160 -212 8 0 -1 10 -20 23 -47 32 -83 87 -125 196 -33 84 -46
104 -119 181 -56 58 -93 108 -116 156 -31 63 -34 77 -34 159 0 67 5 102 19
135 36 83 119 150 184 150 38 0 105 -24 145 -52 31 -21 31 -21 14 -1 -10 12
-41 31 -70 43 -93 41 -186 16 -247 -65 -14 -18 -26 -32 -28 -30 -2 2 13 38 32
80 114 246 324 415 598 480 90 22 286 30 404 16 l101 -11 70 68 c76 74 157
120 218 126 22 2 97 0 166 -5 199 -12 308 -47 381 -122 l39 -40 24 23 c16 15
29 20 34 14 5 -5 25 -58 44 -119 19 -60 39 -126 45 -145 l11 -35 -5 35 c-3 19
-24 92 -47 161 l-42 127 47 58 c64 79 71 105 66 238 -7 162 -27 208 -137 316
-54 54 -114 101 -161 127 -159 90 -383 156 -640 188 -147 19 -545 28 -645 15z"/>
<path d="M2990 2522 c-43 -19 -317 -20 -483 -3 -103 11 -110 11 -142 -9 -18
-11 -48 -37 -66 -58 -34 -38 -89 -121 -89 -133 0 -4 26 8 57 27 94 57 112 59
415 59 l276 0 26 24 c25 23 51 82 44 100 -2 4 -19 1 -38 -7z"/>
<path d="M1113 2370 c-37 -22 -60 -61 -69 -119 -7 -44 9 -59 21 -20 13 40 75
99 105 99 50 0 61 -26 54 -122 -6 -77 -4 -91 16 -132 15 -33 34 -52 60 -66 21
-11 48 -32 59 -46 12 -15 24 -24 27 -21 14 14 -9 58 -51 98 -25 24 -47 50 -50
59 -3 8 4 46 15 84 22 79 18 96 -49 166 -44 46 -85 53 -138 20z"/>
<path d="M1593 2183 c4 -16 18 -80 33 -143 23 -95 28 -139 28 -250 0 -117 -3
-143 -23 -193 -35 -88 -169 -245 -241 -282 -44 -23 -39 -85 6 -85 l24 0 -20
-20 c-20 -20 -20 -21 -3 -58 10 -20 17 -62 18 -92 0 -38 7 -66 21 -90 12 -19
44 -76 73 -127 73 -130 185 -227 430 -376 195 -119 379 -195 561 -234 112 -23
337 -24 432 0 236 58 410 226 454 439 26 124 -11 252 -103 358 -31 36 -76 98
-130 179 -2 2 -12 -8 -24 -22 -47 -60 -205 -121 -254 -99 -41 19 -29 82 17 82
54 0 123 25 159 57 l39 36 128 -6 c70 -3 140 -9 156 -13 28 -7 29 -6 22 22
-19 74 -126 207 -213 262 -45 28 -55 54 -25 71 14 9 13 10 -11 11 -24 0 -27
-3 -21 -25 7 -28 2 -30 -29 -13 -21 11 -21 11 -2 19 13 4 1 6 -30 5 -40 -1
-50 2 -53 17 -3 14 4 17 37 17 23 0 41 4 41 10 0 15 -47 23 -98 16 -60 -8 -80
-26 -29 -26 26 0 37 -4 37 -15 0 -12 -16 -15 -84 -15 -160 0 -256 -49 -356
-181 -124 -162 -166 -188 -277 -174 -161 20 -400 218 -496 410 -61 123 -119
289 -152 440 -8 39 -18 80 -20 93 -3 12 -10 22 -16 22 -7 0 -9 -11 -6 -27z"/>
<path d="M1319 1691 c-39 -40 -40 -89 -1 -133 23 -25 36 -31 66 -30 64 2 97
33 98 93 3 89 -100 133 -163 70z"/>
</g>
</svg>
